<?xml version="1.0" encoding="UTF-8"?>
<svg xmlns="http://www.w3.org/2000/svg" width="300" height="122" viewBox="0 0 300 122" fill="none">
  <path d="M104.308 35.1903L102.677 48.6985C101.59 48.3354 99.8499 48.1538 97.4575 48.1538C94.5576 48.1538 91.9114 48.9708 89.519 50.6049C87.1266 52.2389 85.3866 54.0182 84.2992 55.9428V89.9857H69.8359V35.8984H83.7554V41.3452C85.3866 39.3117 87.5797 37.714 90.3346 36.552C93.1257 35.3537 96.1525 34.7545 99.4149 34.7545C100.575 34.7545 102.206 34.8998 104.308 35.1903Z" fill="#5DF4CC"></path>
  <path d="M146.364 71.0306V54.8534C144.841 52.7836 142.902 51.1496 140.546 49.9513C138.226 48.7529 135.707 48.1538 132.988 48.1538C128.892 48.1538 125.539 49.6244 122.929 52.5657C120.355 55.4707 119.068 58.9386 119.068 62.9692C119.068 67.2178 120.41 70.7401 123.092 73.5362C125.811 76.3322 129.218 77.7302 133.314 77.7302C135.997 77.7302 138.48 77.1311 140.763 75.9328C143.083 74.6981 144.95 73.0641 146.364 71.0306ZM160.827 35.8984V89.9857H146.907V85.6282C142.666 89.2594 137.646 91.075 131.846 91.075C127.895 91.075 124.125 90.258 120.536 88.624C116.948 86.9899 113.939 84.7748 111.511 81.9788C106.907 76.6409 104.605 70.3043 104.605 62.9692C104.605 55.0168 107.179 48.3354 112.326 42.9248C117.473 37.4779 123.726 34.7545 131.085 34.7545C137.102 34.7545 142.376 36.5883 146.907 40.2558V35.8984H160.827Z" fill="#5DF4CC"></path>
  <path d="M179.225 35.8984L194.014 68.9063L208.858 35.8984H223.865L199.071 89.9857H189.012L164.163 35.8984H179.225Z" fill="#5DF4CC"></path>
  <path d="M241.664 35.8984V89.9857H227.201V35.8984H241.664Z" fill="#5DF4CC"></path>
  <path d="M290.43 73.1549L298.641 81.3796C296.067 84.4662 292.805 86.8628 288.854 88.5695C284.902 90.2399 280.788 91.075 276.511 91.075C268.319 91.075 261.558 88.4787 256.23 83.286C250.901 78.0934 248.237 71.3211 248.237 62.9692C248.237 59.2291 248.853 55.6523 250.086 52.2389C251.354 48.8256 253.094 45.8298 255.305 43.2516C257.553 40.6371 260.326 38.5673 263.624 37.0422C266.959 35.5171 270.584 34.7545 274.499 34.7545C279.356 34.7545 283.743 36.0255 287.657 38.5673C291.572 41.0729 294.599 44.4318 296.738 48.644C298.913 52.8562 300 57.4498 300 62.4246C300 63.9497 299.891 65.3296 299.674 66.5642H262.265C262.628 70.3407 264.186 73.4272 266.941 75.8238C269.696 78.1841 272.995 79.3643 276.837 79.3643C279.628 79.3643 282.202 78.747 284.558 77.5124C286.951 76.2777 288.908 74.8252 290.43 73.1549ZM262.918 55.9428H285.211C284.993 53.4372 283.869 51.2403 281.839 49.3521C279.81 47.4275 277.363 46.4653 274.499 46.4653C271.563 46.4653 268.971 47.4094 266.724 49.2976C264.513 51.1859 263.244 53.4009 262.918 55.9428Z" fill="#5DF4CC"></path>
  <path fill-rule="evenodd" clip-rule="evenodd" d="M3.9484 78.1238C1.31613 73.5581 0 68.5281 0 63.0338C0 57.5394 1.31613 52.5094 3.9484 47.9437C6.61937 43.3393 10.2968 39.7022 14.9807 37.0324C19.7033 34.324 24.9291 32.9697 30.6581 32.9697C35.4346 32.9697 39.8478 33.911 43.8977 35.7937H60.1415V47.0901H56.803C56.976 47.3708 57.145 47.6554 57.3098 47.9437C59.9808 52.5094 61.3163 57.5394 61.3163 63.0338C61.3163 68.5281 59.9808 73.5581 57.3098 78.1238C56.93 78.7826 56.5284 79.4217 56.105 80.0411C58.3375 84.1347 59.4537 88.6173 59.4537 93.4888C59.4537 98.6452 58.2031 103.366 55.702 107.651C53.2371 111.936 49.7934 115.331 45.3711 117.836C40.985 120.342 36.1096 121.595 30.7448 121.595C25.38 121.595 20.4864 120.342 16.064 117.836C11.6779 115.331 8.23432 111.936 5.73316 107.651C4.11178 104.832 3.02366 101.825 2.4688 98.6295H17.2735C17.9261 100.629 18.991 102.42 20.4683 104.001C23.1507 106.834 26.5762 108.25 30.7448 108.25C34.9134 108.25 38.3207 106.834 40.9669 104.001C43.6493 101.169 44.9905 97.6648 44.9905 93.4888C44.9905 92.2158 44.8659 91.0052 44.6166 89.8571C40.3715 91.9402 35.7187 92.9817 30.6581 92.9817C24.9291 92.9817 19.7033 91.6468 14.9807 88.977C10.2968 86.3073 6.61937 82.6895 3.9484 78.1238ZM19.6839 51.8323C16.8581 54.8503 15.4452 58.5841 15.4452 63.0338C15.4452 67.4834 16.8581 71.2172 19.6839 74.2352C22.5484 77.2532 26.2065 78.7622 30.6581 78.7622C35.1098 78.7622 38.7485 77.2532 41.5743 74.2352C44.4388 71.2172 45.8711 67.4834 45.8711 63.0338C45.8711 58.5841 44.4388 54.8503 41.5743 51.8323C38.7485 48.7756 35.1098 47.2472 30.6581 47.2472C26.2065 47.2472 22.5484 48.7756 19.6839 51.8323Z" fill="#5DF4CC"></path>
  <path d="M234.407 5.77948C234.562 2.87655 236.706 0.502689 239.498 -0.000189873C241.153 2.38444 240.949 5.67104 238.888 7.83403L238.889 7.83523L238.882 7.84262C238.882 7.84302 238.882 7.84341 238.883 7.84381C241.042 5.77199 244.327 5.56594 246.711 7.22567C246.198 10.0841 243.734 12.2641 240.749 12.3332V12.3349H240.666V12.3352C243.688 12.3651 246.193 14.559 246.71 17.4441C244.33 19.1019 241.049 18.8982 238.89 16.833L238.889 16.8342L238.829 16.7749L238.829 16.775C240.945 18.9368 241.168 22.2625 239.497 24.6694C236.644 24.1555 234.468 21.6875 234.399 18.6977H234.397L234.397 18.5005L234.397 18.5006V18.6141H234.397C234.367 21.6416 232.177 24.151 229.296 24.6696C227.642 22.285 227.845 18.9987 229.907 16.8359L229.905 16.8347L229.911 16.8289C229.911 16.8284 229.91 16.8278 229.91 16.8273C227.75 18.8979 224.466 19.1035 222.083 17.4441C222.585 14.645 224.958 12.4966 227.859 12.3436C227.859 12.3377 227.859 12.3318 227.858 12.3259C224.959 12.1721 222.587 10.0239 222.084 7.22547C224.392 5.61853 227.545 5.76057 229.703 7.65159C229.709 7.64525 229.715 7.63893 229.722 7.63261C227.834 5.47099 227.692 2.31191 229.296 0.000353976C232.088 0.503169 234.231 2.87648 234.387 5.7789C234.394 5.77908 234.4 5.77928 234.407 5.77948Z" fill="#5DF4CC"></path>
</svg>
